# Blender 3.6.0
# www.blender.org
mtllib hole.mtl
o Plane
v -0.040734 -1.012999 1.054008
v 0.028450 -0.236804 -0.009253
v 0.185019 -0.996663 -0.971842
v -0.008513 0.458510 1.113184
v 0.076761 0.819224 -0.010164
v -0.076007 0.528423 -1.163358
vn 0.9918 0.0637 0.1110
vn 0.9986 -0.0238 0.0476
vn 0.9971 -0.0456 0.0611
vn 0.9848 0.1717 0.0247
vn 0.9917 -0.0455 -0.1199
vt 1.000000 0.000000
vt 1.000000 1.000000
vt 0.000000 1.000000
vt 0.000000 0.000000
s 0
f 1/1/1 3/2/1 2/3/1
f 1/1/2 2/3/2 4/4/2
f 4/4/3 2/3/3 5/4/3
f 2/3/4 3/2/4 6/4/4
f 5/4/5 2/3/5 6/4/5
